# xmcd CD database file
#
# Track frame offsets:
#	182
#	26662
#	44530
#	67737
#	90787
#	110555
#	138242
#	161252
#	183417
#	203475
#
# Disc length: 3000 seconds
#
# Revision: 0
# Processed by: cddbd v1.4PL0 Copyright (c) Steve Scherf et al.
# Submitted via: CDex 1.50
#
DISCID=740bb60a
DTITLE=Gilberto Santa Rosa - Con Las Orquestas De Willie Rosario Y Tommy Olivencia
DYEAR=1985
DGENRE=Salsa
TTITLE0=El Antifaz
TTITLE1=Cuando Se Canta Bonito
TTITLE2=Como Sube La Gasolina
TTITLE3=Ya No Queda Nada
TTITLE4=No Me Vuelvo A Postular
TTITLE5=La Mitad
TTITLE6=Mia Nada Más
TTITLE7=Amigo
TTITLE8=Como Eres Tú
TTITLE9=Negrita Linda
EXTD=YEAR: 1985
EXTT0=
EXTT1=
EXTT2=
EXTT3=
EXTT4=
EXTT5=
EXTT6=
EXTT7=
EXTT8=
EXTT9=
PLAYORDER=
